<svg xmlns="http://www.w3.org/2000/svg" xmlns:xlink="http://www.w3.org/1999/xlink" width="1080" zoomAndPan="magnify" viewBox="0 0 810 809.999993" height="1080" preserveAspectRatio="xMidYMid meet" version="1.0"><defs><clipPath id="ce3540fca1"><path d="M 28.515625 62 L 394 62 L 394 575 L 28.515625 575 Z M 28.515625 62 " clip-rule="nonzero"/></clipPath><clipPath id="6e92447bd2"><path d="M 416 235 L 781.515625 235 L 781.515625 748 L 416 748 Z M 416 235 " clip-rule="nonzero"/></clipPath></defs><g clip-path="url(#ce3540fca1)"><path fill="#ffffff" d="M 93.089844 367.742188 L 322.53125 500.203125 L 322.53125 574.746094 L 28.515625 405 L 28.515625 235.25 L 328.496094 62.039062 L 393.070312 99.324219 L 93.089844 272.507812 Z M 93.089844 367.742188 " fill-opacity="1" fill-rule="nonzero"/></g><path fill="#ffffff" d="M 105.015625 360.84375 L 105.015625 279.40625 L 399.03125 109.65625 L 399.03125 184.199219 L 163.597656 320.125 L 393.070312 452.585938 L 383.371094 458.1875 L 328.496094 489.875 Z M 105.015625 360.84375 " fill-opacity="1" fill-rule="nonzero"/><path fill="#ffffff" d="M 334.457031 500.203125 L 399.03125 462.949219 L 399.03125 537.492188 L 334.457031 574.746094 Z M 334.457031 500.203125 " fill-opacity="1" fill-rule="nonzero"/><g clip-path="url(#6e92447bd2)"><path fill="#ffffff" d="M 487.460938 309.792969 L 487.460938 235.25 L 781.480469 405 L 781.480469 574.746094 L 481.496094 747.960938 L 416.921875 710.671875 L 716.933594 537.492188 L 716.933594 442.285156 Z M 487.460938 309.792969 " fill-opacity="1" fill-rule="nonzero"/></g><path fill="#ffffff" d="M 410.960938 347.050781 L 410.960938 272.507812 L 475.535156 235.25 L 475.535156 309.792969 L 429 336.660156 Z M 410.960938 347.050781 " fill-opacity="1" fill-rule="nonzero"/><path fill="#ffffff" d="M 705.007812 449.152344 L 705.007812 530.59375 L 410.960938 700.34375 L 410.960938 625.800781 L 646.398438 489.875 L 416.921875 357.410156 L 481.496094 320.125 Z M 705.007812 449.152344 " fill-opacity="1" fill-rule="nonzero"/></svg>