<svg xmlns="http://www.w3.org/2000/svg" xmlns:xlink="http://www.w3.org/1999/xlink" width="1080" zoomAndPan="magnify" viewBox="0 0 810 809.999993" height="1080" preserveAspectRatio="xMidYMid meet" version="1.0"><defs><g/><clipPath id="f0b013743e"><path d="M 56.945312 199.589844 L 778 199.589844 L 778 675.457031 L 56.945312 675.457031 Z M 56.945312 199.589844 " clip-rule="nonzero"/></clipPath><clipPath id="5f8cdde683"><path d="M 91.445312 199.589844 L 743.460938 199.589844 C 752.613281 199.589844 761.386719 203.222656 767.855469 209.691406 C 774.328125 216.164062 777.960938 224.9375 777.960938 234.089844 L 777.960938 640.957031 C 777.960938 650.109375 774.328125 658.882812 767.855469 665.351562 C 761.386719 671.824219 752.613281 675.457031 743.460938 675.457031 L 91.445312 675.457031 C 82.296875 675.457031 73.523438 671.824219 67.050781 665.351562 C 60.582031 658.882812 56.945312 650.109375 56.945312 640.957031 L 56.945312 234.089844 C 56.945312 224.9375 60.582031 216.164062 67.050781 209.691406 C 73.523438 203.222656 82.296875 199.589844 91.445312 199.589844 Z M 91.445312 199.589844 " clip-rule="nonzero"/></clipPath><clipPath id="dd543c9ac7"><path d="M 0.945312 0.589844 L 722 0.589844 L 722 476.457031 L 0.945312 476.457031 Z M 0.945312 0.589844 " clip-rule="nonzero"/></clipPath><clipPath id="160e004255"><path d="M 35.445312 0.589844 L 687.460938 0.589844 C 696.613281 0.589844 705.386719 4.222656 711.855469 10.691406 C 718.328125 17.164062 721.960938 25.9375 721.960938 35.089844 L 721.960938 441.957031 C 721.960938 451.109375 718.328125 459.882812 711.855469 466.351562 C 705.386719 472.824219 696.613281 476.457031 687.460938 476.457031 L 35.445312 476.457031 C 26.296875 476.457031 17.523438 472.824219 11.050781 466.351562 C 4.582031 459.882812 0.945312 451.109375 0.945312 441.957031 L 0.945312 35.089844 C 0.945312 25.9375 4.582031 17.164062 11.050781 10.691406 C 17.523438 4.222656 26.296875 0.589844 35.445312 0.589844 Z M 35.445312 0.589844 " clip-rule="nonzero"/></clipPath><clipPath id="c12db9dd61"><rect x="0" width="722" y="0" height="477"/></clipPath><clipPath id="261b321e81"><path d="M 0.394531 1 L 98.554688 1 L 98.554688 178.84375 L 0.394531 178.84375 Z M 0.394531 1 " clip-rule="nonzero"/></clipPath><clipPath id="d346026c27"><path d="M 97 59 L 467.238281 59 L 467.238281 155 L 97 155 Z M 97 59 " clip-rule="nonzero"/></clipPath><clipPath id="1784ac67fe"><rect x="0" width="371" y="0" height="96"/></clipPath><clipPath id="6f8f4591b7"><rect x="0" width="468" y="0" height="179"/></clipPath><clipPath id="dc11725e7f"><path d="M 1 1.066406 L 116.53125 1.066406 L 116.53125 128.878906 L 1 128.878906 Z M 1 1.066406 " clip-rule="nonzero"/></clipPath><clipPath id="9161ada8c2"><path d="M 125 40 L 485.28125 40 L 485.28125 134.558594 L 125 134.558594 Z M 125 40 " clip-rule="nonzero"/></clipPath><clipPath id="f2106eb445"><rect x="0" width="361" y="0" height="95"/></clipPath><clipPath id="92f7572e51"><rect x="0" width="486" y="0" height="135"/></clipPath></defs><g clip-path="url(#f0b013743e)"><g clip-path="url(#5f8cdde683)"><g transform="matrix(1, 0, 0, 1, 56, 199)"><g clip-path="url(#c12db9dd61)"><g clip-path="url(#dd543c9ac7)"><g clip-path="url(#160e004255)"><path fill="#ffffff" d="M 0.945312 0.589844 L 722.1875 0.589844 L 722.1875 476.457031 L 0.945312 476.457031 Z M 0.945312 0.589844 " fill-opacity="1" fill-rule="nonzero"/></g></g></g></g></g></g><g transform="matrix(1, 0, 0, 1, 127, 243)"><g clip-path="url(#6f8f4591b7)"><g clip-path="url(#261b321e81)"><path fill="#ff3131" d="M 3.5625 178.148438 C 2.414062 178.863281 0.0859375 178.875 0.402344 177 C 0.5 176.433594 0.960938 175.875 1.222656 175.398438 C 1.824219 173.820312 2.464844 172.242188 3.160156 170.765625 C 6.585938 164.472656 10.0625 158.15625 13.464844 151.871094 C 19.503906 141.410156 25.289062 130.808594 31.515625 120.460938 C 35.027344 113.746094 39.210938 107.421875 42.945312 100.832031 C 45.363281 96.523438 47.757812 92.105469 49.820312 87.609375 C 47.421875 87.359375 45.023438 87.117188 42.636719 86.78125 C 37.886719 86.363281 33.15625 85.734375 28.429688 85.144531 C 27.253906 84.949219 26.074219 84.800781 24.882812 84.730469 C 23.789062 84.695312 22.238281 84.664062 22.414062 83.40625 C 22.304688 83.207031 22.253906 82.976562 22.289062 82.726562 C 22.421875 81.972656 23.023438 81.417969 23.425781 80.800781 C 24.984375 78.675781 26.511719 76.527344 28.1875 74.496094 C 30.324219 71.8125 32.320312 69.019531 34.480469 66.355469 C 37.78125 62.316406 40.667969 57.960938 44.140625 54.0625 C 48.976562 48.660156 53.5 42.988281 58.417969 37.664062 C 68.980469 26.378906 78.957031 14.511719 90.671875 4.378906 C 91.859375 3.355469 92.917969 2.15625 94.199219 1.257812 C 97.628906 0.578125 95.503906 5.292969 94.75 6.816406 C 93.628906 9.277344 92.125 11.527344 90.820312 13.886719 C 89.535156 16.214844 88.597656 18.699219 87.550781 21.132812 C 84.097656 28.335938 80.003906 35.230469 76.6875 42.503906 C 74.238281 48.316406 71.519531 53.953125 68.589844 59.53125 C 67.808594 61.238281 67.121094 62.984375 66.351562 64.691406 C 66.960938 64.796875 67.554688 64.921875 68.003906 64.902344 C 73.679688 65.101562 79.292969 66.019531 84.898438 66.84375 C 87.960938 67.207031 90.996094 67.785156 94.070312 68.078125 C 95.257812 68.238281 97.878906 68.226562 97.96875 69.554688 C 98.109375 70.160156 97.835938 70.949219 97.28125 71.464844 C 91.648438 78.6875 86.105469 85.980469 80.539062 93.257812 C 75.003906 99.5625 69.832031 106.171875 64.367188 112.527344 C 60.160156 117.472656 55.785156 122.261719 51.332031 126.976562 C 47.660156 131.109375 44.210938 135.414062 40.65625 139.644531 C 34.359375 147.605469 26.8125 154.445312 20.085938 162.027344 C 16.121094 166.394531 11.992188 170.601562 7.660156 174.601562 C 6.757812 175.355469 6.109375 176.457031 5.066406 177.011719 C 5.039062 177.023438 5.011719 177.035156 4.984375 177.042969 C 4.535156 177.441406 4.066406 177.816406 3.5625 178.148438 Z M 3.5625 178.148438 " fill-opacity="1" fill-rule="nonzero"/></g><g clip-path="url(#d346026c27)"><g transform="matrix(1, 0, 0, 1, 97, 59)"><g clip-path="url(#1784ac67fe)"><g fill="#000000" fill-opacity="1"><g transform="translate(1.046076, 74.360889)"><g><path d="M 21.953125 0.71875 C 18.523438 0.71875 15.472656 0.296875 12.796875 -0.546875 C 10.117188 -1.398438 7.882812 -2.515625 6.09375 -3.890625 C 4.3125 -5.273438 2.945312 -6.789062 2 -8.4375 L 7.390625 -15.015625 L 8.234375 -15.015625 C 9.722656 -12.796875 11.613281 -11.03125 13.90625 -9.71875 C 16.207031 -8.414062 18.890625 -7.765625 21.953125 -7.765625 C 24.578125 -7.765625 26.554688 -8.316406 27.890625 -9.421875 C 29.222656 -10.523438 29.890625 -12.050781 29.890625 -14 C 29.890625 -15.175781 29.675781 -16.15625 29.25 -16.9375 C 28.820312 -17.726562 28.109375 -18.40625 27.109375 -18.96875 C 26.117188 -19.539062 24.773438 -20.03125 23.078125 -20.4375 L 16.703125 -21.890625 C 12.253906 -22.910156 8.9375 -24.597656 6.75 -26.953125 C 4.570312 -29.316406 3.484375 -32.382812 3.484375 -36.15625 C 3.484375 -38.957031 4.179688 -41.421875 5.578125 -43.546875 C 6.984375 -45.671875 9.023438 -47.320312 11.703125 -48.5 C 14.378906 -49.675781 17.582031 -50.265625 21.3125 -50.265625 C 25.132812 -50.265625 28.40625 -49.757812 31.125 -48.75 C 33.851562 -47.75 36.15625 -46.207031 38.03125 -44.125 L 33.171875 -37.484375 L 32.328125 -37.484375 C 30.929688 -38.953125 29.328125 -40.050781 27.515625 -40.78125 C 25.710938 -41.519531 23.644531 -41.890625 21.3125 -41.890625 C 18.625 -41.890625 16.578125 -41.414062 15.171875 -40.46875 C 13.773438 -39.519531 13.078125 -38.207031 13.078125 -36.53125 C 13.078125 -34.96875 13.566406 -33.722656 14.546875 -32.796875 C 15.535156 -31.878906 17.238281 -31.160156 19.65625 -30.640625 L 26.15625 -29.28125 C 30.96875 -28.257812 34.457031 -26.535156 36.625 -24.109375 C 38.800781 -21.679688 39.890625 -18.515625 39.890625 -14.609375 C 39.890625 -11.515625 39.222656 -8.816406 37.890625 -6.515625 C 36.554688 -4.222656 34.546875 -2.441406 31.859375 -1.171875 C 29.171875 0.0859375 25.867188 0.71875 21.953125 0.71875 Z M 21.953125 0.71875 "/></g></g><g transform="translate(43.61508, 74.360889)"><g><path d="M 5.390625 15.15625 L 5.390625 -37.375 L 14.78125 -37.375 L 14.78125 -32.5 L 15.484375 -32.359375 C 16.585938 -34.265625 18.066406 -35.695312 19.921875 -36.65625 C 21.773438 -37.613281 23.945312 -38.09375 26.4375 -38.09375 C 29.4375 -38.09375 32.0625 -37.378906 34.3125 -35.953125 C 36.5625 -34.535156 38.3125 -32.375 39.5625 -29.46875 C 40.820312 -26.5625 41.453125 -22.960938 41.453125 -18.671875 C 41.453125 -14.398438 40.789062 -10.816406 39.46875 -7.921875 C 38.144531 -5.035156 36.304688 -2.875 33.953125 -1.4375 C 31.609375 0 28.898438 0.71875 25.828125 0.71875 C 23.492188 0.71875 21.476562 0.328125 19.78125 -0.453125 C 18.09375 -1.234375 16.660156 -2.445312 15.484375 -4.09375 L 14.78125 -3.96875 L 14.78125 15.15625 Z M 23.21875 -7.25 C 26.019531 -7.25 28.140625 -8.164062 29.578125 -10 C 31.023438 -11.832031 31.75 -14.722656 31.75 -18.671875 C 31.75 -22.628906 31.023438 -25.523438 29.578125 -27.359375 C 28.140625 -29.203125 26.019531 -30.125 23.21875 -30.125 C 20.59375 -30.125 18.507812 -29.175781 16.96875 -27.28125 C 15.4375 -25.382812 14.671875 -22.515625 14.671875 -18.671875 C 14.671875 -14.859375 15.4375 -12 16.96875 -10.09375 C 18.507812 -8.195312 20.59375 -7.25 23.21875 -7.25 Z M 23.21875 -7.25 "/></g></g><g transform="translate(88.387098, 74.360889)"><g><path d="M 10.0625 -41.859375 C 8.375 -41.859375 7 -42.367188 5.9375 -43.390625 C 4.875 -44.421875 4.34375 -45.75 4.34375 -47.375 C 4.34375 -48.976562 4.875 -50.296875 5.9375 -51.328125 C 7 -52.359375 8.375 -52.875 10.0625 -52.875 C 11.195312 -52.875 12.203125 -52.632812 13.078125 -52.15625 C 13.960938 -51.675781 14.644531 -51.023438 15.125 -50.203125 C 15.613281 -49.378906 15.859375 -48.4375 15.859375 -47.375 C 15.859375 -46.3125 15.613281 -45.363281 15.125 -44.53125 C 14.644531 -43.695312 13.960938 -43.039062 13.078125 -42.5625 C 12.203125 -42.09375 11.195312 -41.859375 10.0625 -41.859375 Z M 5.390625 0 L 5.390625 -37.375 L 14.78125 -37.375 L 14.78125 0 Z M 5.390625 0 "/></g></g><g transform="translate(108.519255, 74.360889)"><g><path d="M 5.390625 0 L 5.390625 -52.390625 L 14.78125 -52.390625 L 14.78125 -23.3125 L 15.6875 -23.3125 L 26.5 -37.375 L 36.03125 -37.375 L 36.03125 -36.59375 L 23.3125 -20.203125 L 37.453125 -0.84375 L 37.453125 0 L 27.546875 0 L 15.6875 -15.765625 L 14.78125 -15.765625 L 14.78125 0 Z M 5.390625 0 "/></g></g></g><g fill="#000000" fill-opacity="1"><g transform="translate(145.462103, 74.360889)"><g><path d="M 36.9375 -16.578125 L 12.90625 -16.578125 C 13.175781 -13.316406 14.101562 -10.945312 15.6875 -9.46875 C 17.269531 -7.988281 19.425781 -7.25 22.15625 -7.25 C 24.3125 -7.25 26.050781 -7.648438 27.375 -8.453125 C 28.707031 -9.253906 29.785156 -10.46875 30.609375 -12.09375 L 31.3125 -12.09375 L 37.546875 -8.09375 C 36.328125 -5.476562 34.484375 -3.351562 32.015625 -1.71875 C 29.554688 -0.09375 26.269531 0.71875 22.15625 0.71875 C 18.300781 0.71875 14.96875 -0.015625 12.15625 -1.484375 C 9.34375 -2.953125 7.171875 -5.140625 5.640625 -8.046875 C 4.117188 -10.953125 3.359375 -14.492188 3.359375 -18.671875 C 3.359375 -22.921875 4.160156 -26.5 5.765625 -29.40625 C 7.367188 -32.320312 9.535156 -34.5 12.265625 -35.9375 C 15.003906 -37.375 18.078125 -38.09375 21.484375 -38.09375 C 26.773438 -38.09375 30.828125 -36.691406 33.640625 -33.890625 C 36.453125 -31.085938 37.859375 -26.972656 37.859375 -21.546875 C 37.859375 -19.585938 37.789062 -18.066406 37.65625 -16.984375 Z M 28.875 -22.640625 C 28.78125 -25.484375 28.117188 -27.554688 26.890625 -28.859375 C 25.660156 -30.160156 23.859375 -30.8125 21.484375 -30.8125 C 16.742188 -30.8125 13.953125 -28.085938 13.109375 -22.640625 Z M 28.875 -22.640625 "/></g></g><g transform="translate(186.099234, 74.360889)"><g><path d="M 15.515625 0.71875 C 12.148438 0.71875 9.582031 -0.191406 7.8125 -2.015625 C 6.039062 -3.835938 5.15625 -6.597656 5.15625 -10.296875 L 5.15625 -52.390625 L 14.53125 -52.390625 L 14.53125 -10.671875 C 14.53125 -8.390625 15.484375 -7.25 17.390625 -7.25 C 17.929688 -7.25 18.503906 -7.34375 19.109375 -7.53125 L 19.59375 -7.390625 L 20.4375 -0.171875 C 19.914062 0.0976562 19.222656 0.3125 18.359375 0.46875 C 17.503906 0.632812 16.554688 0.71875 15.515625 0.71875 Z M 15.515625 0.71875 "/></g></g><g transform="translate(207.587091, 74.360889)"><g><path d="M 14.578125 0.71875 C 12.179688 0.71875 10.097656 0.273438 8.328125 -0.609375 C 6.566406 -1.492188 5.210938 -2.785156 4.265625 -4.484375 C 3.316406 -6.191406 2.84375 -8.242188 2.84375 -10.640625 C 2.84375 -12.859375 3.316406 -14.71875 4.265625 -16.21875 C 5.210938 -17.71875 6.679688 -18.945312 8.671875 -19.90625 C 10.660156 -20.863281 13.257812 -21.601562 16.46875 -22.125 C 18.707031 -22.488281 20.40625 -22.882812 21.5625 -23.3125 C 22.726562 -23.738281 23.515625 -24.222656 23.921875 -24.765625 C 24.328125 -25.316406 24.53125 -26.007812 24.53125 -26.84375 C 24.53125 -28.039062 24.113281 -28.953125 23.28125 -29.578125 C 22.445312 -30.210938 21.054688 -30.53125 19.109375 -30.53125 C 17.035156 -30.53125 15.0625 -30.066406 13.1875 -29.140625 C 11.3125 -28.210938 9.679688 -26.992188 8.296875 -25.484375 L 7.625 -25.484375 L 3.6875 -31.421875 C 5.59375 -33.515625 7.910156 -35.148438 10.640625 -36.328125 C 13.367188 -37.503906 16.351562 -38.09375 19.59375 -38.09375 C 24.539062 -38.09375 28.117188 -37.039062 30.328125 -34.9375 C 32.546875 -32.832031 33.65625 -29.851562 33.65625 -26 L 33.65625 -9.765625 C 33.65625 -8.085938 34.390625 -7.25 35.859375 -7.25 C 36.421875 -7.25 36.972656 -7.351562 37.515625 -7.5625 L 37.984375 -7.421875 L 38.671875 -0.875 C 38.148438 -0.539062 37.425781 -0.265625 36.5 -0.046875 C 35.570312 0.160156 34.554688 0.265625 33.453125 0.265625 C 31.210938 0.265625 29.460938 -0.160156 28.203125 -1.015625 C 26.953125 -1.867188 26.054688 -3.210938 25.515625 -5.046875 L 24.8125 -5.125 C 22.976562 -1.226562 19.566406 0.71875 14.578125 0.71875 Z M 17.5625 -6.296875 C 19.726562 -6.296875 21.457031 -7.023438 22.75 -8.484375 C 24.050781 -9.941406 24.703125 -11.972656 24.703125 -14.578125 L 24.703125 -18.375 L 24.0625 -18.5 C 23.5 -18.050781 22.757812 -17.671875 21.84375 -17.359375 C 20.925781 -17.054688 19.609375 -16.757812 17.890625 -16.46875 C 15.859375 -16.132812 14.394531 -15.550781 13.5 -14.71875 C 12.613281 -13.894531 12.171875 -12.726562 12.171875 -11.21875 C 12.171875 -9.613281 12.644531 -8.390625 13.59375 -7.546875 C 14.539062 -6.710938 15.863281 -6.296875 17.5625 -6.296875 Z M 17.5625 -6.296875 "/></g></g><g transform="translate(247.004091, 74.360889)"><g><path d="M 5.390625 0 L 5.390625 -37.375 L 14.40625 -37.375 L 14.40625 -31.890625 L 15.109375 -31.71875 C 17.441406 -35.96875 21.21875 -38.09375 26.4375 -38.09375 C 30.75 -38.09375 33.914062 -36.914062 35.9375 -34.5625 C 37.957031 -32.21875 38.96875 -28.796875 38.96875 -24.296875 L 38.96875 0 L 29.578125 0 L 29.578125 -23.140625 C 29.578125 -25.628906 29.082031 -27.421875 28.09375 -28.515625 C 27.101562 -29.609375 25.507812 -30.15625 23.3125 -30.15625 C 20.625 -30.15625 18.53125 -29.285156 17.03125 -27.546875 C 15.53125 -25.804688 14.78125 -23.070312 14.78125 -19.34375 L 14.78125 0 Z M 5.390625 0 "/></g></g><g transform="translate(290.793226, 74.360889)"><g><path d="M 21.796875 0.71875 C 18.179688 0.71875 14.984375 -0.03125 12.203125 -1.53125 C 9.421875 -3.039062 7.25 -5.253906 5.6875 -8.171875 C 4.132812 -11.085938 3.359375 -14.585938 3.359375 -18.671875 C 3.359375 -22.785156 4.132812 -26.296875 5.6875 -29.203125 C 7.25 -32.117188 9.40625 -34.328125 12.15625 -35.828125 C 14.914062 -37.335938 18.070312 -38.09375 21.625 -38.09375 C 29.507812 -38.09375 34.554688 -35.234375 36.765625 -29.515625 L 30.328125 -24.90625 L 29.625 -24.90625 C 28.851562 -26.664062 27.847656 -27.972656 26.609375 -28.828125 C 25.378906 -29.691406 23.71875 -30.125 21.625 -30.125 C 18.914062 -30.125 16.800781 -29.1875 15.28125 -27.3125 C 13.769531 -25.4375 13.015625 -22.554688 13.015625 -18.671875 C 13.015625 -14.828125 13.78125 -11.960938 15.3125 -10.078125 C 16.851562 -8.191406 19.015625 -7.25 21.796875 -7.25 C 23.828125 -7.25 25.546875 -7.796875 26.953125 -8.890625 C 28.367188 -9.992188 29.382812 -11.570312 30 -13.625 L 30.703125 -13.6875 L 37.375 -10.03125 C 36.425781 -6.863281 34.671875 -4.28125 32.109375 -2.28125 C 29.546875 -0.28125 26.109375 0.71875 21.796875 0.71875 Z M 21.796875 0.71875 "/></g></g><g transform="translate(329.32902, 74.360889)"><g><path d="M 36.9375 -16.578125 L 12.90625 -16.578125 C 13.175781 -13.316406 14.101562 -10.945312 15.6875 -9.46875 C 17.269531 -7.988281 19.425781 -7.25 22.15625 -7.25 C 24.3125 -7.25 26.050781 -7.648438 27.375 -8.453125 C 28.707031 -9.253906 29.785156 -10.46875 30.609375 -12.09375 L 31.3125 -12.09375 L 37.546875 -8.09375 C 36.328125 -5.476562 34.484375 -3.351562 32.015625 -1.71875 C 29.554688 -0.09375 26.269531 0.71875 22.15625 0.71875 C 18.300781 0.71875 14.96875 -0.015625 12.15625 -1.484375 C 9.34375 -2.953125 7.171875 -5.140625 5.640625 -8.046875 C 4.117188 -10.953125 3.359375 -14.492188 3.359375 -18.671875 C 3.359375 -22.921875 4.160156 -26.5 5.765625 -29.40625 C 7.367188 -32.320312 9.535156 -34.5 12.265625 -35.9375 C 15.003906 -37.375 18.078125 -38.09375 21.484375 -38.09375 C 26.773438 -38.09375 30.828125 -36.691406 33.640625 -33.890625 C 36.453125 -31.085938 37.859375 -26.972656 37.859375 -21.546875 C 37.859375 -19.585938 37.789062 -18.066406 37.65625 -16.984375 Z M 28.875 -22.640625 C 28.78125 -25.484375 28.117188 -27.554688 26.890625 -28.859375 C 25.660156 -30.160156 23.859375 -30.8125 21.484375 -30.8125 C 16.742188 -30.8125 13.953125 -28.085938 13.109375 -22.640625 Z M 28.875 -22.640625 "/></g></g></g></g></g></g></g></g><g transform="matrix(1, 0, 0, 1, 162, 494)"><g clip-path="url(#92f7572e51)"><g clip-path="url(#dc11725e7f)"><path fill="#ff751f" d="M 116.066406 34.605469 L 79.980469 34.605469 L 79.980469 128.753906 L 79.976562 128.753906 C 61.457031 128.753906 46.441406 113.753906 46.441406 95.238281 L 46.441406 68.125 C 46.441406 49.605469 31.476562 34.605469 12.960938 34.605469 L 1.007812 34.605469 L 1.007812 1.066406 L 116.066406 1.066406 Z M 116.066406 34.605469 " fill-opacity="1" fill-rule="nonzero"/></g><g clip-path="url(#9161ada8c2)"><g transform="matrix(1, 0, 0, 1, 125, 40)"><g clip-path="url(#f2106eb445)"><g fill="#000000" fill-opacity="1"><g transform="translate(0.984286, 73.689412)"><g><path d="M 39.71875 -49.546875 L 39.71875 -41.3125 L 25.421875 -41.3125 L 25.421875 0 L 15.65625 0 L 15.65625 -41.3125 L 1.359375 -41.3125 L 1.359375 -49.546875 Z M 39.71875 -49.546875 "/></g></g></g><g fill="#000000" fill-opacity="1"><g transform="translate(37.249282, 73.689412)"><g><path d="M 36.9375 -16.578125 L 12.90625 -16.578125 C 13.175781 -13.316406 14.101562 -10.945312 15.6875 -9.46875 C 17.269531 -7.988281 19.425781 -7.25 22.15625 -7.25 C 24.3125 -7.25 26.050781 -7.648438 27.375 -8.453125 C 28.707031 -9.253906 29.785156 -10.46875 30.609375 -12.09375 L 31.3125 -12.09375 L 37.546875 -8.09375 C 36.328125 -5.476562 34.484375 -3.351562 32.015625 -1.71875 C 29.554688 -0.09375 26.269531 0.71875 22.15625 0.71875 C 18.300781 0.71875 14.96875 -0.015625 12.15625 -1.484375 C 9.34375 -2.953125 7.171875 -5.140625 5.640625 -8.046875 C 4.117188 -10.953125 3.359375 -14.492188 3.359375 -18.671875 C 3.359375 -22.921875 4.160156 -26.5 5.765625 -29.40625 C 7.367188 -32.320312 9.535156 -34.5 12.265625 -35.9375 C 15.003906 -37.375 18.078125 -38.09375 21.484375 -38.09375 C 26.773438 -38.09375 30.828125 -36.691406 33.640625 -33.890625 C 36.453125 -31.085938 37.859375 -26.972656 37.859375 -21.546875 C 37.859375 -19.585938 37.789062 -18.066406 37.65625 -16.984375 Z M 28.875 -22.640625 C 28.78125 -25.484375 28.117188 -27.554688 26.890625 -28.859375 C 25.660156 -30.160156 23.859375 -30.8125 21.484375 -30.8125 C 16.742188 -30.8125 13.953125 -28.085938 13.109375 -22.640625 Z M 28.875 -22.640625 "/></g></g><g transform="translate(77.886413, 73.689412)"><g><path d="M 14.578125 0.71875 C 12.179688 0.71875 10.097656 0.273438 8.328125 -0.609375 C 6.566406 -1.492188 5.210938 -2.785156 4.265625 -4.484375 C 3.316406 -6.191406 2.84375 -8.242188 2.84375 -10.640625 C 2.84375 -12.859375 3.316406 -14.71875 4.265625 -16.21875 C 5.210938 -17.71875 6.679688 -18.945312 8.671875 -19.90625 C 10.660156 -20.863281 13.257812 -21.601562 16.46875 -22.125 C 18.707031 -22.488281 20.40625 -22.882812 21.5625 -23.3125 C 22.726562 -23.738281 23.515625 -24.222656 23.921875 -24.765625 C 24.328125 -25.316406 24.53125 -26.007812 24.53125 -26.84375 C 24.53125 -28.039062 24.113281 -28.953125 23.28125 -29.578125 C 22.445312 -30.210938 21.054688 -30.53125 19.109375 -30.53125 C 17.035156 -30.53125 15.0625 -30.066406 13.1875 -29.140625 C 11.3125 -28.210938 9.679688 -26.992188 8.296875 -25.484375 L 7.625 -25.484375 L 3.6875 -31.421875 C 5.59375 -33.515625 7.910156 -35.148438 10.640625 -36.328125 C 13.367188 -37.503906 16.351562 -38.09375 19.59375 -38.09375 C 24.539062 -38.09375 28.117188 -37.039062 30.328125 -34.9375 C 32.546875 -32.832031 33.65625 -29.851562 33.65625 -26 L 33.65625 -9.765625 C 33.65625 -8.085938 34.390625 -7.25 35.859375 -7.25 C 36.421875 -7.25 36.972656 -7.351562 37.515625 -7.5625 L 37.984375 -7.421875 L 38.671875 -0.875 C 38.148438 -0.539062 37.425781 -0.265625 36.5 -0.046875 C 35.570312 0.160156 34.554688 0.265625 33.453125 0.265625 C 31.210938 0.265625 29.460938 -0.160156 28.203125 -1.015625 C 26.953125 -1.867188 26.054688 -3.210938 25.515625 -5.046875 L 24.8125 -5.125 C 22.976562 -1.226562 19.566406 0.71875 14.578125 0.71875 Z M 17.5625 -6.296875 C 19.726562 -6.296875 21.457031 -7.023438 22.75 -8.484375 C 24.050781 -9.941406 24.703125 -11.972656 24.703125 -14.578125 L 24.703125 -18.375 L 24.0625 -18.5 C 23.5 -18.050781 22.757812 -17.671875 21.84375 -17.359375 C 20.925781 -17.054688 19.609375 -16.757812 17.890625 -16.46875 C 15.859375 -16.132812 14.394531 -15.550781 13.5 -14.71875 C 12.613281 -13.894531 12.171875 -12.726562 12.171875 -11.21875 C 12.171875 -9.613281 12.644531 -8.390625 13.59375 -7.546875 C 14.539062 -6.710938 15.863281 -6.296875 17.5625 -6.296875 Z M 17.5625 -6.296875 "/></g></g><g transform="translate(117.303412, 73.689412)"><g><path d="M 5.390625 0 L 5.390625 -37.375 L 14.40625 -37.375 L 14.40625 -32.359375 L 15.109375 -32.234375 C 16.328125 -34.242188 17.753906 -35.722656 19.390625 -36.671875 C 21.035156 -37.617188 23.132812 -38.09375 25.6875 -38.09375 C 28.507812 -38.09375 30.78125 -37.53125 32.5 -36.40625 C 34.21875 -35.289062 35.472656 -33.660156 36.265625 -31.515625 L 36.96875 -31.515625 C 38.125 -33.753906 39.609375 -35.410156 41.421875 -36.484375 C 43.242188 -37.554688 45.507812 -38.09375 48.21875 -38.09375 C 55.96875 -38.09375 59.84375 -33.773438 59.84375 -25.140625 L 59.84375 0 L 50.46875 0 L 50.46875 -23.953125 C 50.46875 -26.148438 50.035156 -27.734375 49.171875 -28.703125 C 48.316406 -29.671875 46.941406 -30.15625 45.046875 -30.15625 C 39.890625 -30.15625 37.3125 -26.710938 37.3125 -19.828125 L 37.3125 0 L 27.921875 0 L 27.921875 -23.953125 C 27.921875 -26.148438 27.484375 -27.734375 26.609375 -28.703125 C 25.742188 -29.671875 24.363281 -30.15625 22.46875 -30.15625 C 20.050781 -30.15625 18.164062 -29.347656 16.8125 -27.734375 C 15.457031 -26.117188 14.78125 -23.550781 14.78125 -20.03125 L 14.78125 0 Z M 5.390625 0 "/></g></g><g transform="translate(181.970339, 73.689412)"><g><path d="M 37.859375 -49.546875 L 37.859375 -41.34375 L 16.234375 -41.34375 L 16.234375 -28.234375 L 35.859375 -28.234375 L 35.859375 -20.125 L 16.234375 -20.125 L 16.234375 0 L 6.4375 0 L 6.4375 -49.546875 Z M 37.859375 -49.546875 "/></g></g><g transform="translate(222.031297, 73.689412)"><g><path d="M 16.234375 -49.546875 L 16.234375 -8.203125 L 38.5 -8.203125 L 38.5 0 L 6.4375 0 L 6.4375 -49.546875 Z M 16.234375 -49.546875 "/></g></g><g transform="translate(262.16004, 73.689412)"><g><path d="M 21.71875 0.71875 C 18.0625 0.71875 14.847656 -0.03125 12.078125 -1.53125 C 9.316406 -3.039062 7.171875 -5.242188 5.640625 -8.140625 C 4.117188 -11.046875 3.359375 -14.554688 3.359375 -18.671875 C 3.359375 -22.785156 4.117188 -26.296875 5.640625 -29.203125 C 7.171875 -32.117188 9.316406 -34.328125 12.078125 -35.828125 C 14.847656 -37.335938 18.0625 -38.09375 21.71875 -38.09375 C 25.382812 -38.09375 28.597656 -37.335938 31.359375 -35.828125 C 34.128906 -34.328125 36.28125 -32.117188 37.8125 -29.203125 C 39.351562 -26.296875 40.125 -22.785156 40.125 -18.671875 C 40.125 -14.554688 39.351562 -11.046875 37.8125 -8.140625 C 36.28125 -5.242188 34.128906 -3.039062 31.359375 -1.53125 C 28.597656 -0.03125 25.382812 0.71875 21.71875 0.71875 Z M 21.71875 -7.25 C 27.53125 -7.25 30.4375 -11.054688 30.4375 -18.671875 C 30.4375 -22.628906 29.6875 -25.523438 28.1875 -27.359375 C 26.695312 -29.203125 24.539062 -30.125 21.71875 -30.125 C 15.914062 -30.125 13.015625 -26.304688 13.015625 -18.671875 C 13.015625 -11.054688 15.914062 -7.25 21.71875 -7.25 Z M 21.71875 -7.25 "/></g></g></g><g fill="#000000" fill-opacity="1"><g transform="translate(305.339111, 73.689412)"><g><path d="M 20.0625 0 L 10.234375 0 L 1.359375 -37.375 L 10.0625 -37.375 L 15.5625 -12.09375 L 16.265625 -12.09375 L 23.390625 -37.375 L 31.515625 -37.375 L 38.875 -12.09375 L 39.578125 -12.09375 L 44.875 -37.375 L 53.34375 -37.375 L 44.5625 0 L 34.703125 0 L 27.625 -25.453125 L 26.90625 -25.453125 Z M 20.0625 0 "/></g></g></g></g></g></g></g></g></svg>